<svg xmlns="http://www.w3.org/2000/svg" version="1.1" xmlns:xlink="http://www.w3.org/1999/xlink" xmlns:svgjs="http://svgjs.dev/svgjs" width="1440" height="560" preserveAspectRatio="none" viewBox="0 0 1440 560"><g mask="url(&quot;#SvgjsMask1007&quot;)" fill="none"><path d="M -183.92444440162865,307 C -87.92,265.4 104.08,91.2 296.07555559837135,99 C 488.08,106.8 584.08,326.4 776.0755555983714,346 C 968.08,365.6 1064.08,195 1256.0755555983715,197 C 1448.08,199 1699.29,371.8 1736.0755555983715,356 C 1772.86,340.2 1499.22,165.6 1440,118" stroke="rgba(51, 121, 194, 0.58)" stroke-width="2"></path><path d="M -709.2940630292558,219 C -613.29,266.6 -421.29,455.4 -229.29406302925574,457 C -37.29,458.6 58.71,256 250.70593697074426,227 C 442.71,198 538.71,311.8 730.7059369707442,312 C 922.71,312.2 1068.85,222.2 1210.7059369707442,228 C 1352.56,233.8 1394.14,318.4 1440,341" stroke="rgba(51, 121, 194, 0.58)" stroke-width="2"></path><path d="M -757.9698842936065,97 C -661.97,138 -469.97,288.8 -277.96988429360647,302 C -85.97,315.2 10.03,149.8 202.03011570639353,163 C 394.03,176.2 490.03,372.2 682.0301157063935,368 C 874.03,363.8 1010.44,158.8 1162.0301157063936,142 C 1313.62,125.2 1384.41,255.6 1440,284" stroke="rgba(51, 121, 194, 0.58)" stroke-width="2"></path></g><defs><mask id="SvgjsMask1007"><rect width="1440" height="560" fill="#ffffff"></rect></mask></defs></svg>