<svg xmlns="http://www.w3.org/2000/svg" version="1.1" xmlns:xlink="http://www.w3.org/1999/xlink" xmlns:svgjs="http://svgjs.dev/svgjs" width="1341" height="560" preserveAspectRatio="none" viewBox="0 0 1341 560"><g mask="url(&quot;#SvgjsMask1463&quot;)" fill="none"><path d="M -178.6852640583083,208 C -44.49,248 223.91,439.8 492.3147359416917,408 C 760.71,376.2 894.91,42.8 1163.3147359416917,49 C 1431.71,55.2 1798.78,397.4 1834.3147359416917,439 C 1869.85,480.6 1439.66,293.4 1341,257" stroke="rgba(51, 121, 194, 0.58)" stroke-width="2"></path><path d="M -397.33473817036423,243 C -263.13,302.2 5.27,587.2 273.66526182963577,539 C 542.07,490.8 676.27,4.2 944.6652618296357,2 C 1213.07,-0.2 1536.4,522 1615.6652618296357,528 C 1694.93,534 1395.93,131.2 1341,32" stroke="rgba(51, 121, 194, 0.58)" stroke-width="2"></path><path d="M -789.3864408883275,442 C -655.19,404 -386.79,277.4 -118.38644088832747,252 C 150.01,226.6 284.21,342.2 552.6135591116725,315 C 821.01,287.8 1065.94,76 1223.6135591116724,116 C 1381.29,156 1317.52,435.2 1341,515" stroke="rgba(51, 121, 194, 0.58)" stroke-width="2"></path></g><defs><mask id="SvgjsMask1463"><rect width="1341" height="560" fill="#ffffff"></rect></mask></defs></svg>