<svg xmlns="http://www.w3.org/2000/svg" version="1.1" xmlns:xlink="http://www.w3.org/1999/xlink" xmlns:svgjs="http://svgjs.dev/svgjs" width="1440" height="560" preserveAspectRatio="none" viewBox="0 0 1440 560"><g mask="url(&quot;#SvgjsMask1001&quot;)" fill="none"><path d="M -494.97725081176816,464 C -398.98,384.8 -206.98,89.6 -14.977250811768137,68 C 177.02,46.4 273.02,344 465.02274918823184,356 C 657.02,368 753.02,104.6 945.0227491882318,128 C 1137.02,151.4 1326.03,459.6 1425.022749188232,473 C 1524.02,486.4 1437,250.6 1440,195" stroke="rgba(51, 121, 194, 0.58)" stroke-width="2"></path><path d="M -438.4531087409197,257 C -342.45,290.6 -150.45,452.8 41.54689125908032,425 C 233.55,397.2 329.55,142 521.5468912590803,118 C 713.55,94 809.55,282.4 1001.5468912590803,305 C 1193.55,327.6 1393.86,197.4 1481.5468912590802,231 C 1569.24,264.6 1448.31,424.6 1440,473" stroke="rgba(51, 121, 194, 0.58)" stroke-width="2"></path><path d="M -490.07234628361675,435 C -394.07,394 -202.07,255.4 -10.072346283616724,230 C 181.93,204.6 277.93,322.8 469.92765371638325,308 C 661.93,293.2 757.93,158.8 949.9276537163832,156 C 1141.93,153.2 1331.91,280.4 1429.9276537163832,294 C 1527.94,307.6 1437.99,238 1440,224" stroke="rgba(51, 121, 194, 0.58)" stroke-width="2"></path><path d="M -423.93920325740146,156 C -327.94,185.6 -135.94,323.4 56.06079674259854,304 C 248.06,284.6 344.06,41.4 536.0607967425985,59 C 728.06,76.6 824.06,361 1016.0607967425985,392 C 1208.06,423 1411.27,229.2 1496.0607967425985,214 C 1580.85,198.8 1451.21,295.6 1440,316" stroke="rgba(51, 121, 194, 0.58)" stroke-width="2"></path></g><defs><mask id="SvgjsMask1001"><rect width="1440" height="560" fill="#ffffff"></rect></mask></defs></svg>